<svg xmlns="http://www.w3.org/2000/svg" width="800" height="800" fill="none"><g clip-path="url(#a)"><path fill="#300" d="M0 0h800v800H0z"/><path fill="#FF9A00" d="M390.345 222.218H278.023l-129.141 348h100.609l16.819-52.08h129.141l16.818 52.08h103.613l-125.537-348Zm-59.465 208.92h-36.64l36.64-113.19 36.64 113.491h-36.64v-.301Zm291.002-134.92h-93v274h93v-274Zm2.997-49.5c.3 25.675-20.399 43.798-49.497 43.496-29.098.302-49.797-17.821-49.497-43.496-.3-25.675 20.399-43.799 49.497-43.497 29.098-.302 49.797 17.822 49.497 43.497Z"/></g><defs><clipPath id="a"><path fill="#fff" d="M0 0h800v800H0z"/></clipPath></defs></svg>