<svg xmlns="http://www.w3.org/2000/svg" width="800" height="800" fill="none"><g clip-path="url(#a)"><path fill="#A7F175" d="M0 0h800v800H0z"/><g clip-path="url(#b)"><path fill="#A7F175" d="M800 0H0v800h800V0Z"/><path fill="#000" d="M378.415 535.952c-30.849 0-50.467-18.675-50.467-42.393C327.948 392.121 595 371.812 595 264.053 595 198.333 518.801 170 421.526 170c-59.175 0-126.098 10.936-188.223 30.535v128.528c91.588-66.643 193.306-95.154 258.842-95.154 41.192 0 69.162 11.504 69.162 32.062 0 84.786-368.307 71.365-368.307 254.572C193 590.773 241.335 631 309.36 631c102.855 0 180.689-99.876 238.868-221.588l11.8 4.225c-30.672 74.383-94.112 155.974-106.444 208.38h132.424v-271.26h-30.565c-44.426 96.361-109.465 185.195-177.028 185.195Z"/></g></g><defs><clipPath id="a"><path fill="#fff" d="M0 0h800v800H0z"/></clipPath><clipPath id="b"><path fill="#fff" d="M0 0h800v800H0z"/></clipPath></defs></svg>