<svg xmlns="http://www.w3.org/2000/svg" width="800" height="800" fill="none"><g clip-path="url(#a)"><path fill="#775F65" d="M0 0h800v800H0z"/><g clip-path="url(#b)"><path fill="#775F65" d="M800 0H0v800h800V0Z"/><path fill="#fff" d="M494.8 176H206.4c-15.6 0-28 12.4-28 28v162c0 7.6 6.4 14 14 14h368.4c10.8 0 19.6 8.8 19.6 19.6s-8.8 19.6-19.6 19.6H192.4c-7.6 0-14 6.4-14 14V596c0 15.6 12.4 28 28 28h288.4c22.8 0 43.2-13.6 51.6-34.4l70.8-168c6-14 6-29.6 0-43.6l-70.8-168c-8.8-20.4-29.2-34-51.6-34Z"/></g></g><defs><clipPath id="a"><path fill="#fff" d="M0 0h800v800H0z"/></clipPath><clipPath id="b"><path fill="#fff" d="M0 0h800v800H0z"/></clipPath></defs></svg>