<svg xmlns="http://www.w3.org/2000/svg" width="800" height="800" fill="none"><path fill="#FF0032" d="M0 0h800v800H0z"/><g clip-path="url(#a)"><path fill="#fff" d="m189 559.537 78.975-102.231c39.488 47.921 104.503 72.68 159.547 72.68 32.308 0 53.049-7.587 53.049-27.555 0-23.96-23.932-35.94-86.953-47.921l-47.465-9.185c-80.97-15.574-148.777-51.515-148.777-141.367 0-96.241 82.565-146.958 187.866-146.958 92.537 0 165.13 32.347 212.197 79.07l-78.178 101.034c-37.494-39.535-98.121-67.09-148.777-67.09-24.73 0-42.28 8.386-42.28 25.558 0 25.957 27.522 35.142 74.189 45.924l55.841 12.779c102.908 23.162 153.165 66.291 153.165 144.962 0 96.241-81.768 144.162-190.658 144.162C328.603 643 242.448 616.244 189 559.537Z"/></g><defs><clipPath id="a"><path fill="#fff" d="M189 157h422v486H189z"/></clipPath></defs></svg>